<?xml version="1.0" encoding="UTF-8" standalone="no"?>
<!DOCTYPE svg PUBLIC "-//W3C//DTD SVG 1.1//EN"
 "http://www.w3.org/Graphics/SVG/1.1/DTD/svg11.dtd">
<!-- Generated by graphviz version 2.26.3 (20100126.1600)
 -->
<!-- Title: G Pages: 1 -->
<svg width="546pt" height="334pt"
 viewBox="0.00 0.00 546.00 334.00" xmlns="http://www.w3.org/2000/svg" xmlns:xlink="http://www.w3.org/1999/xlink">
<g id="graph1" class="graph" transform="scale(1 1) rotate(0) translate(4 330)">
<title>G</title>
<polygon fill="lightyellow" stroke="lightyellow" points="-4,5 -4,-330 543,-330 543,5 -4,5"/>
<!-- OntologySource&#45;&gt;Investigation -->
<g id="edge2" class="edge"><title>OntologySource&#45;&gt;Investigation</title>
<path fill="none" stroke="black" d="M333.163,-221.123C328.315,-231.483 323.061,-242.713 318.194,-253.114"/>
<polygon fill="black" stroke="black" points="315.535,-258.797 315.633,-252.218 316.807,-256.08 318.078,-253.362 318.078,-253.362 318.078,-253.362 316.807,-256.08 320.524,-254.507 315.535,-258.797 315.535,-258.797"/>
<text text-anchor="middle" x="323.204" y="-250.179" font-family="Bitstream Vera Sans" font-size="8.00">1</text>
<text text-anchor="middle" x="325.494" y="-225.341" font-family="Bitstream Vera Sans" font-size="8.00">*</text>
</g>
<!-- OntologyTerm&#45;&gt;Investigation -->
<g id="edge4" class="edge"><title>OntologyTerm&#45;&gt;Investigation</title>
<path fill="none" stroke="black" d="M278.639,-107.451C274.64,-119.285 271.086,-131.907 269,-144 263.107,-178.162 261.826,-188.084 269,-222 271.207,-232.435 275.077,-243.207 279.35,-253.078"/>
<polygon fill="black" stroke="black" points="281.903,-258.777 276.986,-254.405 280.676,-256.039 279.45,-253.302 279.45,-253.302 279.45,-253.302 280.676,-256.039 281.914,-252.198 281.903,-258.777 281.903,-258.777"/>
<text text-anchor="middle" x="282.055" y="-246.578" font-family="Bitstream Vera Sans" font-size="8.00">1</text>
<text text-anchor="middle" x="271.774" y="-112.522" font-family="Bitstream Vera Sans" font-size="8.00">*</text>
</g>
<!-- OntologyTerm&#45;&gt;OntologySource -->
<g id="edge6" class="edge"><title>OntologyTerm&#45;&gt;OntologySource</title>
<path fill="none" stroke="black" d="M321.626,-107.214C325.756,-117.872 330.052,-128.954 334.041,-139.247"/>
<polygon fill="black" stroke="black" points="336.223,-144.876 331.537,-140.258 335.139,-142.079 334.055,-139.282 334.055,-139.282 334.055,-139.282 335.139,-142.079 336.572,-138.306 336.223,-144.876 336.223,-144.876"/>
<text text-anchor="middle" x="336.889" y="-132.699" font-family="Bitstream Vera Sans" font-size="8.00">0..1</text>
<text text-anchor="middle" x="320.96" y="-114.992" font-family="Bitstream Vera Sans" font-size="8.00">*</text>
</g>
<!-- OntologyTerm&#45;&gt;Sample -->
<g id="edge8" class="edge"><title>OntologyTerm&#45;&gt;Sample</title>
<path fill="none" stroke="black" d="M374.672,-54C378.127,-54 381.582,-54 385.037,-54"/>
<polygon fill="black" stroke="black" points="391.256,-54 385.256,-56.7001 388.256,-54 385.256,-54.0001 385.256,-54.0001 385.256,-54.0001 388.256,-54 385.256,-51.3001 391.256,-54 391.256,-54"/>
<text text-anchor="middle" x="382.192" y="-47.5738" font-family="Bitstream Vera Sans" font-size="8.00">*</text>
<text text-anchor="middle" x="383.735" y="-56.0262" font-family="Bitstream Vera Sans" font-size="8.00">*</text>
</g>
<!-- Identifiable -->
<g id="node1" class="node"><title>Identifiable</title>
<polygon fill="white" stroke="dimgrey" points="-0.5,-36 -0.5,-72 98.5,-72 98.5,-36 -0.5,-36"/>
<text text-anchor="middle" x="49" y="-60.8" font-family="Arial-Italic" font-size="8.00" fill="dimgrey">Interface:Identifiable</text>
<polyline fill="none" stroke="dimgrey" points="-0.5,-54 98.5,-54 "/>
<text text-anchor="start" x="7.5" y="-42.8" font-family="Arial-Italic" font-size="8.00" fill="dimgrey">id : int*</text>
</g>
<!-- Nameable -->
<g id="node2" class="node"><title>Nameable</title>
<polygon fill="white" stroke="dimgrey" points="115.5,-36 115.5,-72 210.5,-72 210.5,-36 115.5,-36"/>
<text text-anchor="middle" x="163" y="-60.8" font-family="Arial-Italic" font-size="8.00" fill="dimgrey">Interface:Nameable</text>
<polyline fill="none" stroke="dimgrey" points="115.5,-54 210.5,-54 "/>
<text text-anchor="start" x="123.5" y="-42.8" font-family="Arial-Italic" font-size="8.00" fill="dimgrey">name : string*</text>
</g>
<!-- Investigation -->
<g id="node3" class="node"><title>Investigation</title>
<polygon fill="white" stroke="black" points="226.5,-259 226.5,-325 373.5,-325 373.5,-259 226.5,-259"/>
<text text-anchor="middle" x="300" y="-313.8" font-family="Arial" font-size="8.00">Investigation</text>
<text text-anchor="middle" x="300" y="-303.8" font-family="Arial" font-size="8.00"> implements Identifiable, Nameable</text>
<polyline fill="none" stroke="black" points="226.5,-297 373.5,-297 "/>
<text text-anchor="start" x="234.5" y="-285.8" font-family="Arial" font-size="8.00">name : string*</text>
<text text-anchor="start" x="234.5" y="-275.8" font-family="Arial" font-size="8.00">description : text</text>
<text text-anchor="start" x="234.5" y="-265.8" font-family="Arial" font-size="8.00">accession : string</text>
</g>
<!-- OntologySource -->
<g id="node4" class="node"><title>OntologySource</title>
<polygon fill="white" stroke="black" points="277.5,-145 277.5,-221 424.5,-221 424.5,-145 277.5,-145"/>
<text text-anchor="middle" x="351" y="-209.8" font-family="Arial" font-size="8.00">OntologySource</text>
<text text-anchor="middle" x="351" y="-199.8" font-family="Arial" font-size="8.00"> implements Identifiable, Nameable</text>
<polyline fill="none" stroke="black" points="277.5,-193 424.5,-193 "/>
<text text-anchor="start" x="285.5" y="-181.8" font-family="Arial" font-size="8.00">name : string*</text>
<text text-anchor="start" x="285.5" y="-171.8" font-family="Arial" font-size="8.00">investigation : xref&#45;&gt;investigation*</text>
<text text-anchor="start" x="285.5" y="-161.8" font-family="Arial" font-size="8.00">ontologyAccession : string</text>
<text text-anchor="start" x="285.5" y="-151.8" font-family="Arial" font-size="8.00">ontologyURI : hyperlink</text>
</g>
<!-- OntologyTerm -->
<g id="node5" class="node"><title>OntologyTerm</title>
<polygon fill="white" stroke="black" points="227.5,-1 227.5,-107 374.5,-107 374.5,-1 227.5,-1"/>
<text text-anchor="middle" x="301" y="-95.8" font-family="Arial" font-size="8.00">OntologyTerm</text>
<text text-anchor="middle" x="301" y="-85.8" font-family="Arial" font-size="8.00"> implements Identifiable, Nameable</text>
<polyline fill="none" stroke="black" points="227.5,-79 374.5,-79 "/>
<text text-anchor="start" x="235.5" y="-67.8" font-family="Arial" font-size="8.00">name : string*</text>
<text text-anchor="start" x="235.5" y="-57.8" font-family="Arial" font-size="8.00">investigation : xref&#45;&gt;investigation*</text>
<text text-anchor="start" x="235.5" y="-47.8" font-family="Arial" font-size="8.00">term : string*</text>
<text text-anchor="start" x="235.5" y="-37.8" font-family="Arial" font-size="8.00">termDefinition : string</text>
<text text-anchor="start" x="235.5" y="-27.8" font-family="Arial" font-size="8.00">termAccession : string</text>
<text text-anchor="start" x="235.5" y="-17.8" font-family="Arial" font-size="8.00">termSource : xref&#45;&gt;ontologySource</text>
<text text-anchor="start" x="235.5" y="-7.8" font-family="Arial" font-size="8.00">termPath : string</text>
</g>
<!-- Sample -->
<g id="node6" class="node"><title>Sample</title>
<polygon fill="white" stroke="black" points="391.5,-26 391.5,-82 538.5,-82 538.5,-26 391.5,-26"/>
<text text-anchor="middle" x="465" y="-70.8" font-family="Arial" font-size="8.00">Sample</text>
<text text-anchor="middle" x="465" y="-60.8" font-family="Arial" font-size="8.00"> implements Identifiable, Nameable</text>
<polyline fill="none" stroke="black" points="391.5,-54 538.5,-54 "/>
<text text-anchor="start" x="399.5" y="-42.8" font-family="Arial" font-size="8.00">name : string*</text>
<text text-anchor="start" x="399.5" y="-32.8" font-family="Arial" font-size="8.00">annotations : mref&#45;&gt;ontologyTerm*</text>
</g>
</g>
</svg>
